<?xml version="1.0" encoding="UTF-8" standalone="no"?>
<svg
   xmlns:dc="http://purl.org/dc/elements/1.1/"
   xmlns:cc="http://creativecommons.org/ns#"
   xmlns:rdf="http://www.w3.org/1999/02/22-rdf-syntax-ns#"
   xmlns:svg="http://www.w3.org/2000/svg"
   xmlns="http://www.w3.org/2000/svg"
   xmlns:sodipodi="http://sodipodi.sourceforge.net/DTD/sodipodi-0.dtd"
   xmlns:inkscape="http://www.inkscape.org/namespaces/inkscape"
   version="1.0"
   width="400.000000pt"
   height="400.000000pt"
   viewBox="0 0 400.000000 400.000000"
   preserveAspectRatio="xMidYMid meet"
   id="svg8"
   sodipodi:docname="cmosnail.svg"
   inkscape:version="0.92.2 2405546, 2018-03-11"
   inkscape:export-filename="/home/john/Documents/git/homecmos-wiki/cmosnail.png"
   inkscape:export-xdpi="90"
   inkscape:export-ydpi="90">
  <defs
     id="defs12">
    <inkscape:path-effect
       effect="bounding_box"
       id="path-effect249"
       is_visible="true"
       linkedpath=""
       visualbounds="false" />
    <inkscape:path-effect
       effect="bounding_box"
       id="path-effect249-3"
       is_visible="true"
       linkedpath=""
       visualbounds="false" />
  </defs>
  <sodipodi:namedview
     pagecolor="#ffffff"
     bordercolor="#666666"
     borderopacity="1"
     objecttolerance="10"
     gridtolerance="10"
     guidetolerance="10"
     inkscape:pageopacity="0"
     inkscape:pageshadow="2"
     inkscape:window-width="1916"
     inkscape:window-height="1041"
     id="namedview10"
     showgrid="false"
     inkscape:zoom="0.885"
     inkscape:cx="-154.67457"
     inkscape:cy="342.46706"
     inkscape:window-x="0"
     inkscape:window-y="18"
     inkscape:window-maximized="0"
     inkscape:current-layer="g6" />
  <metadata
     id="metadata2">
Created by potrace 1.15, written by Peter Selinger 2001-2017
<rdf:RDF>
  <cc:Work
     rdf:about="">
    <dc:format>image/svg+xml</dc:format>
    <dc:type
       rdf:resource="http://purl.org/dc/dcmitype/StillImage" />
    <dc:title />
  </cc:Work>
</rdf:RDF>
</metadata>
  <g
     transform="translate(0.000000,400.000000) scale(0.100000,-0.100000)"
     fill="#000000"
     stroke="none"
     id="g6">
    <rect
       style="opacity:1;fill:#ffffff;fill-opacity:1;stroke:#000000;stroke-width:0;stroke-linejoin:round;stroke-miterlimit:4;stroke-dasharray:none;stroke-opacity:1"
       id="rect10"
       width="3999.9976"
       height="3999.9976"
       x="5.3548081e-07"
       y="-3999.9976"
       transform="scale(1,-1)" />
    <path
       d="m 2473,3189 c -187,-16 -402,-74 -563,-153 -140,-68 -327,-228 -413,-352 -117,-171 -199,-395 -242,-664 -25,-158 -53,-315 -59,-330 -4,-10 -20,-15 -47,-15 -34,0 -46,-6 -70,-33 -16,-18 -29,-39 -29,-48 0,-30 -22,-8 -40,39 -26,67 -70,224 -70,247 0,0 -14.24124,55.5212 -23,83 -8,23 -27,83 -42,132 -15,50 -33,108 -40,130 -8,22 -26,81 -40,130 -15,50 -34,109 -43,133 -14,40 -14,46 1,72 21,35 21,54 1,85 -35,53 -120,50 -149,-6 -21,-40 -19,-57 14,-90 16,-16 34,-48 39,-71 6,-24 29,-115 52,-203 67,-261 79,-309 76,-312 -1,-1 -46,3 -100,10 l -97,12 -18,50 c -36,101 -91,251 -100,270 -5,11 -14,34 -20,50 -5,17 -21,60 -34,98 -14,37 -16,73 -16,73 5,3 12.50561,24.2687 9,47 -5.55191,36 -4.88392,47.7838 -33,65 -43.94493,26.9085 -66.26723,15.6044 -97,2 -52,-37 -48,-109 8,-141 23,-13 34,-36 64,-125 21,-60 61,-179 91,-264 l 53,-155 -88,-97 c -54,-60 -86,-103 -82,-112 3,-8 -15,-42 -40,-78 C 198,1547 208.99152,1558.4831 208.99152,1558.4831 235.99152,1522.4831 272,1494 317,1524 c 55,35 75,36 87,4 8,-24 3,-34 -49,-100 -32,-40 -63,-79 -68,-86 -8,-10 -2,-21 19,-42 l 29,-29 82,49 c 77,46 82,48 97,31 9,-10 16,-21 16,-25 0,-4 -25,-41 -55,-81 -30,-41 -55,-77 -55,-80 0,-3 16,-21 37,-40 31,-29 39,-32 57,-23 12,6 23,14 26,17 14,16 90,71 99,71 22,0 10,-24 -44,-91 -30,-37 -55,-72 -55,-77 0,-5 9,-17 19,-26 15,-13 28,-16 53,-11 18,4 38,11 43,15 13,9 105,40 120,40 6,0 22,-10 35,-23 52,-49 191,-153 259,-194 168,-102 310,-145 526,-162 77,-6 192,-16 255,-21 149,-13 928,-13 1135,0 88,5 252,14 365,20 219,12 259,21 370,84 98,56 106,72 52,100 -29,15 -266,56 -322,56 h -34 l 45,48 c 143,148 232,321 291,562 21,86 23,118 23,330 0,251 -5,287 -62,480 -125,423 -423,737 -795,839 -153.6098,38.815 -303.8076,40.1823 -445,30 z m 292,-45 c 14,-6 14,-9 -3,-28 -11,-11 -30,-50 -43,-86 -19,-56 -23,-85 -23,-210 -1,-119 2,-151 17,-179 9,-19 17,-36 17,-38 0,-1 -15,-3 -34,-3 -33,0 -34,2 -41,48 -3,26 -13,72 -22,102 -41,144 -79,261 -105,325 -15,39 -28,71 -28,73 0,5 250,2 265,-4 z m -355,-17 c 0,0 -11.1528,-75.4339 -20.1695,-112.4237 -11.3959,-46.7504 -31.7542,-137.8814 -42.7542,-137.8814 -35.5634,46.9593 -76.6609,91.3853 -112,143 -18,26 -54.0763,70.3051 -53.0763,71.3051 11,4 206,47 216,48 6,1 12,-5 12,-12 z m 925,-257 40,-42 -32,16 c -18,9 -52,16 -76,16 -38,0 -50,-6 -86,-40 -48,-46 -51,-69 -21,-148 22,-57 26,-97 10,-107 -11,-7 -93,20 -125,42 -42,28 -97,-1 -81,-43 3,-8 2,-14 -1,-14 -13,0 -73,24 -73,30 0,3 18,15 40,28 21,12 56,42 76,67 95,113 100,264 12,377 l -29,37 43,-16 c 108.678,-52.8882 217.5337,-116.829 303,-203 z m -1246,43 c 6,-82 19,-217 28,-301 16,-144 16,-153 -1,-170 -16,-16 -18,-16 -34,4 -35,44 -55,46 -124,14 -77,-37 -136,-39 -185,-8 -93,56 -80,181 29,289 66,65 80,104 54,144 -9,14 -23,25 -32,25 -38,0 1,30 116,88 69,34 127,62 131,62 3,0 11,-66 18,-147 z m 829,81 c 19,-13 22,-24 21,-77 -1,-98 -35,-166 -85,-170 -28,-2 -29,-1 -32,51 -4,76 38,212 66,212 4,0 18,-7 30,-16 z m -533,-274 c 9,0 28,27 46,66 l 32,67 42,-84 c 23,-46 53,-103 68,-126 l 26,-42 -27,-5 c -15,-2 -49,-7 -77,-11 -56,-7 -173,-39 -223,-61 -18,-7 -34,-14 -35,-14 -1,0 -2,44 -2,97 0,54 -4,135 -9,181 -9.5608,186.0467 97.4767,-65.338 159,-68 z m -791,-12 c -14,-25 -18,-56 -18,-128 0,-82 3,-101 24,-140 75,-137 206,-201 317,-155 19,8 37,15 39,15 2,0 -14,-27 -36,-60 -59,-93 -97,-204 -116,-339 -14,-107 -14,-131 -1,-247 14,-119 48,-261 77,-326 21,-44 8,-58 -55,-58 -155,0 -436,132 -574,269 l -50,51 20,46 c 19,43 44,161 70,329 47,311 128,534 261,717 52,72 73,85 42,26 z m 1833,-38 c 9,0 25,7 35,17 10,9 19,14 21,12 30,-40 82,-129 107,-184 17,-38 36,-79 41,-90 20,-45 59,-176 80,-275 20,-91 24,-133 24,-310 0,-181 -3,-218 -24,-310 -13,-58 -37,-140 -53,-183 -25,-63 -33,-77 -48,-72 -27,9 -69,-12 -128,-62 -42,-36 -56,-43 -63,-32 -5,9 -3,21 6,34 62,86 84,184 46,205 -30,16 -63,-2 -108,-59 -30,-37 -43,-47 -52,-38 -13,13 -15,57 -2,57 5,0 16,12 24,28 8,15 22,41 31,57 33,61 16,112 -33,102 -35,-7 -37,-1 -16,49 21,52 47,250 40,314 -22,194 -63,310 -151,427 -28,37 -29,13 -10,13 24,0 90,102 114,153 24,51 23,65 -10,130 -14,29 -16,42 -8,58 11,20 12,20 66,-10 29,-17 61,-31 71,-31 z M 730,2641 c 17,-32 12,-69 -12,-85 -14.96816,-10.6915 -42.59355,-5.9703 -42.59355,-5.9703 0,0 18.61221,8.0768 25.59355,22.9703 10,21 9,31 -4,51 -9,13 -27,27 -39,29 -13,2 -4,5 19,6 32,1 45,-4 53,-18 z m -363,-21.6483 c 7,-4 15,-19.3517 19,-36.3517 7,-35 -22,-73 -56,-73 -9.5932,0 -17.62348,2.2071 -17.62348,2.2071 0,0 7.21668,7.3861 17.62348,17.7929 11,11 20,29 20,40 0,11 -9,29 -20,40 l -20,20 h 23 c 12,0 28,-6.6483 34,-10.6483 z M 2777,2550 c 275,-35 482,-247 523,-538 46,-332 -81,-620 -321,-723 -46,-21 -70,-24 -169,-24 -169,0 -253,31 -363,135 -160,150 -233,402 -161,555 101.7619,188.8408 394.3585,261.5085 562,151 171,-119 218,-407 83,-500 -51,-36 -86,-34 -106,4 -12,23 -13,39 -5,72 11,48 12,160 1,198 -4,14 -13,25 -21,25 -22,0 -39,-78 -38,-178 1,-78 -2,-91 -22,-112 -43,-46 -122,-45 -178,2 -29,24 -32,31 -32,84 0,69 12,104 47,137 23,21 34,23 87,20 51,-2 61,0 64,14 4,22 -67,42 -117,33 -115,-22 -174,-231 -89,-314 41,-40 87,-54 154,-49 38,3 61,11 79,28 l 24,22 24,-28 c 55,-63 166,-20 220,85 54,107 30,279 -54,401 -68,98 -175,150 -309,150 -139.9569,-6.4361 -283.1149,-48.9381 -375,-159 -85,-106 -95,-269 -27,-439 l 27,-67 -22,-23 c -45,-48 -158,-336 -175,-447 -3,-16 -11,-8 -40,35 -116,176 -182,360 -201,561 -35,381 96,652 388,797 163,81 361,114 542,92 z M 745,2392 c 20,-64 46,-146 57,-182 11,-36 26,-83 33,-105 7,-22 23,-73 36,-113 l 23,-73 -89,-86 -89,-85 -168,12 -169,13 23,25 c 13,14 47,51 76,81 44,47 52,61 48,86 -2,17 -34,116 -70,220 -37,105 -76,216 -87,249 -11,32 -18,61 -15,64 3,2 9,-6 14,-19 5,-13 22,-58 37,-99 15,-41 38,-102 50,-135 12,-33 42,-113 66,-177 l 43,-117 40,-5 c 125,-15 230,-25 232,-23 2,2 -17,79 -61,242 -15,55 -33,127 -41,160 -7,33 -20,82 -29,109 -8,27 -15,58 -15,68 0,43 21,1 55,-110 z m 180,-608 c 21,-90 74,-222 110,-273 78,-114 334,-301 545,-399 212,-99 338,-115 404,-53 l 22,21 40,-52 c 91,-120 203,-211 308,-250 28,-10 96,-31 151,-45 93,-26 114,-27 305,-28 197,0 208,1 290,28 90,29 181,72 241,113 35,24 38,24 135,15 160,-15 286,-41 274,-56 -21,-25 -160,-86 -217,-95 -154,-24 -662,-44 -1138,-44 -491,0 -671,9 -765,38 -125,38 -344,170 -475,286 -267,238 -414,475 -415,669 v 63 l 77,73 c 43,40 81,72 84,69 3,-2 14,-38 24,-80 z m -370,-60 100,-7 -72,-33 c -40,-19 -73,-38 -73,-43 0,-5 5,-22 10,-37 l 11,-27 88,7 c 122,9 125,-6 19,-93 -43,-35 -78,-67 -78,-72 0,-4 10,-20 23,-35 l 23,-27 79,28 c 63,21 80,24 86,13 17,-27 7,-44 -51,-81 l -59,-39 16,-34 c 23,-47 10,-53 -25,-13 -135,154 -262,371 -279,477 l -6,35 44,-6 c 24,-3 89,-9 144,-13 z m 141,-91 c -3,-3 -38,-7 -78,-10 l -73,-4 75,39 75,38 3,-29 c 2,-16 1,-31 -2,-34 z m -336,-34 c 0,-14 -91,-62 -100,-53 -5,5 3,27 20,53 51,76 52,76 67,40 7,-17 13,-35 13,-40 z m 810,35 c 0,-3 -7,-12 -15,-21 -14,-13 -12,-19 15,-54 50,-62 115,-116 225,-185 67,-41 206,-103 278,-124 79,-22 185,-30 223,-17 18,6 25,-1 53,-54 30,-57 31,-63 16,-85 -64,-99 -386,19 -715,261 -76,55 -137,113 -160,151 -17,26 -18,36 -9,65 13,39 43,69 70,69 10,0 19,-3 19,-6 z M 729,1470 c 8,-23 7,-32 -2,-34 -7,-2 -33,-11 -60,-19 -26,-8 -50,-11 -52,-7 -5,8 83,90 97,90 3,0 11,-14 17,-30 z m -274,-41 c 9,-17 15,-32 13,-33 -115,-75 -153,-90 -131,-53 17,29 88,116 95,117 4,0 15,-14 23,-31 z m 1935.517,-46.0038 c -4.4479,-23.924 -14.2916,-57.7756 -23.517,-82.9962 -26,-69 -31,-74 -56,-61 -28,15 -28,65 1,153 l 21,67 31,-39 c 17,-22 21.517,-37.0038 26.517,-37.0038 z M 3209,1258 c 29,-51 56,-100 61,-108 5,-8 16,-28 25,-45 8,-16 31,-59 50,-94 20,-35 34,-69 32,-75 -3,-6 -24,-25 -49,-43 l -44,-31 -17,79 c -25,109 -74,222 -135,311 l -33,49 28,24 c 16,13 29,25 29,25 1,0 25,-42 53,-92 z m -2426,-7 c -46,-21 -56,-22 -64,-10 -13,20 -12,21 34,55 l 42,32 21,-26 21,-26 z m 1748,31 55,-29 -37,-36 c -21,-20 -49,-57 -62,-84 -46,-91 -68,-262 -42,-325 6,-16 4,-16 -42,-1 -26,9 -49,17 -51,18 -1,1 9,23 23,49 32,60 73,222 80,317 6,72 13,119 18,119 1,0 27,-13 58,-28 z m -1950,-34 23,-31 -30,-24 c -64,-54 -74,-58 -91,-41 -14,15 -12,21 23,72 22,30 42,55 46,56 4,0 17,-14 29,-32 z m 2437,-110 -3,-43 -38,54 c -49,68 -54,81 -31,81 11,1 30,7 44,15 25,13 25,13 28,-26 2,-21 2,-58 0,-81 z m -2148,92 c 0,-5 -22,-26 -49,-46 l -49,-37 31,-38 c 18,-21 36,-39 40,-39 4,0 27,9 50,19 23,11 49,21 58,23 9,2 52,-30 100,-75 132,-123 285,-235 409,-299 l 45,-23 -33,-3 c -39,-4 -149,27 -237,65 -150,66 -365,219 -474,339 l -53,57 39,20 c 40,20 103,45 116,46 4,1 7,-3 7,-9 z m 1976,-254 1,-239 -111,7 c -121,7 -166,14 -166,26 0,4 11,11 25,14 47,12 143,114 180,191 49,102 47,162 -8,222 l -20,22 49,-2 49,-2 z M 915,1163 c 12,-16 9,-20 -23,-35 -31,-14 -39,-15 -51,-3 -11,11 -10,16 5,33 24,25 53,27 69,5 z m -198,-55 32,-31 -56,-23 c -31,-13 -70,-26 -86,-30 l -29,-6 48,61 c 27,33 51,61 54,61 2,0 19,-14 37,-32 z m 1934,11 c 6,-13 9,-50 7,-90 -3,-58 -8,-74 -34,-106 -76,-94 -107,-25 -62,138 20,75 23,79 49,79 19,0 32,-7 40,-21 z m -371,-19 c 4,0 15,-11 23,-24 14,-20 14,-30 2,-77 -7,-30 -16,-71 -19,-91 -4,-21 -10,-38 -14,-38 -5,0 -33,23 -64,50 l -57,50 24,25 c 12,14 29,40 36,58 17,45 30,59 46,52 8,-3 18,-5 23,-5 z m 870,-197 c 31,-66 37,-89 28,-95 -23,-14 -175,-58 -203,-58 -25,0 -26,2 -18,33 4,17 8,67 8,109 v 77 l 32,-31 c 29,-28 35,-30 58,-20 14,7 31,26 37,42 5,17 12,30 14,30 2,0 22,-39 44,-87 z"
       id="path4"
       style="fill:#4d4d4d"
       inkscape:connector-curvature="0"
       sodipodi:nodetypes="ccccssssccccccccccsccsccccccssscccccccccccccscccscscscscscccsccccccccscccsccccccccsscccsccacccccccsscccccssccccccccscccccscscccccsccccscccccsscccsccsccccsccccccscccccsccscccccssccccccsscccsccccccccccscssscsccccscccccccscccsccccccccccccccccccccccssccccccccccccssscccscccscccccccccccccccsccccccccccsccccsccccccccccccscccccsssccssccccccccccssccccsccccccccccccccscccccccccccccccccccccccccccscccccccccccccccscccscscccccccccscccscccccccccsccccccccscccccscscccscccccsccscsccccsc" />
  </g>
</svg>
